<?xml version="1.0" standalone="no"?>
<!DOCTYPE svg PUBLIC "-//W3C//DTD SVG 20010904//EN"
 "http://www.w3.org/TR/2001/REC-SVG-20010904/DTD/svg10.dtd">
<svg version="1.0" xmlns="http://www.w3.org/2000/svg"
 width="1588.000000pt" height="1588.000000pt" viewBox="0 0 1588.000000 1588.000000"
 preserveAspectRatio="xMidYMid meet">
<metadata>
Created by potrace 1.11, written by Peter Selinger 2001-2013
</metadata>
<g transform="translate(0.000000,1588.000000) scale(0.100000,-0.100000)"
fill="#000000" stroke="none">
<path d="M7428 15355 c-2 -1 -109 -5 -238 -9 -129 -3 -255 -8 -280 -10 -25 -3
-84 -7 -132 -11 -49 -3 -96 -8 -105 -9 -10 -2 -49 -7 -88 -10 -38 -4 -113 -13
-165 -21 -52 -8 -115 -16 -140 -20 -25 -3 -70 -10 -100 -16 -30 -6 -64 -12
-75 -13 -440 -68 -1199 -296 -1625 -488 -57 -26 -129 -57 -135 -58 -2 -1 -98
-48 -212 -105 -420 -208 -777 -427 -1148 -705 -202 -150 -324 -250 -549 -450
-68 -60 -459 -451 -521 -521 -28 -31 -64 -71 -80 -90 -17 -19 -66 -77 -109
-129 -43 -52 -88 -106 -99 -120 -107 -127 -373 -501 -497 -700 -145 -231 -369
-644 -449 -830 -22 -49 -56 -127 -97 -216 -82 -184 -243 -643 -305 -874 -7
-25 -14 -49 -15 -55 -33 -113 -103 -410 -118 -498 -3 -15 -7 -35 -10 -45 -3
-9 -7 -33 -10 -52 -3 -19 -8 -46 -11 -60 -6 -28 -8 -44 -29 -180 -8 -52 -18
-117 -21 -145 -3 -27 -8 -63 -10 -80 -3 -16 -7 -52 -9 -80 -2 -27 -7 -72 -10
-100 -22 -185 -30 -387 -30 -725 1 -295 7 -487 19 -595 2 -22 7 -71 10 -110 6
-66 10 -108 20 -180 2 -16 7 -57 10 -90 4 -33 9 -69 11 -80 3 -11 7 -38 9 -60
5 -35 12 -77 29 -177 16 -92 42 -220 63 -313 14 -60 26 -117 28 -125 2 -8 11
-44 20 -80 9 -36 19 -75 21 -87 7 -38 121 -413 154 -508 54 -152 146 -393 184
-480 8 -16 35 -79 62 -140 50 -114 212 -442 262 -530 16 -27 50 -88 77 -135
268 -475 683 -1029 1065 -1424 120 -124 299 -299 369 -362 30 -27 62 -56 71
-64 59 -56 348 -294 446 -367 293 -219 608 -425 847 -557 37 -20 84 -46 104
-57 114 -64 460 -233 583 -284 36 -15 79 -33 95 -41 122 -55 530 -201 730
-260 140 -41 455 -121 568 -145 56 -11 111 -22 122 -25 32 -7 237 -43 275 -48
19 -3 83 -12 142 -21 123 -18 161 -22 363 -40 44 -3 100 -8 125 -10 251 -22
833 -22 1060 0 19 2 76 6 125 10 50 3 101 8 115 10 14 2 52 7 85 10 33 3 71 8
85 10 24 4 60 9 145 20 22 2 51 7 65 10 13 2 40 7 60 10 20 3 47 7 60 10 13 3
42 7 65 11 22 3 103 19 180 35 77 17 147 32 156 34 197 42 749 206 894 266 17
7 32 13 35 14 3 1 14 5 25 10 11 4 72 28 135 53 228 89 594 261 778 366 35 20
66 36 68 36 2 0 25 13 51 28 27 16 82 48 123 72 211 124 516 330 730 494 93
72 337 270 350 285 3 3 43 40 90 80 187 164 567 558 745 772 309 371 588 781
816 1199 79 145 200 384 239 475 10 22 30 67 44 100 27 61 31 68 61 140 9 22
20 49 25 60 50 114 207 567 236 680 1 6 12 42 23 80 48 169 118 462 136 565 3
19 10 54 16 78 5 24 11 60 14 80 3 20 7 48 10 62 3 14 8 43 10 65 3 22 10 65
15 95 5 30 14 98 20 150 6 52 13 110 15 127 3 18 7 68 10 110 4 43 8 94 10
113 18 141 25 755 11 985 -10 169 -22 314 -31 380 -2 17 -7 57 -10 90 -7 63
-12 110 -20 160 -3 17 -7 48 -10 70 -6 38 -18 116 -30 180 -13 78 -16 94 -26
145 -19 100 -78 353 -104 450 -14 52 -28 104 -30 115 -3 12 -13 46 -23 76
l-18 56 70 39 c107 60 116 66 196 119 165 110 350 273 486 430 78 89 184 230
184 243 0 6 4 12 8 14 24 9 164 270 225 418 74 179 135 397 157 561 6 43 13
93 16 111 9 56 11 436 3 496 -5 31 -11 77 -14 102 -8 74 -13 101 -30 180 -9
41 -18 80 -19 85 -2 6 -6 24 -10 40 -44 178 -187 514 -267 627 -11 14 -19 29
-19 32 0 9 -119 177 -179 251 -71 89 -239 261 -314 323 -32 26 -70 57 -85 70
-51 44 -277 190 -367 237 -287 150 -585 238 -915 272 -96 9 -341 10 -450 0
-82 -7 -104 -10 -180 -23 -19 -3 -46 -8 -60 -10 -83 -14 -320 -78 -385 -105
-17 -7 -34 -13 -40 -14 -27 -6 -279 -128 -355 -171 -104 -60 -337 -228 -385
-278 -6 -6 -34 -33 -62 -59 l-51 -49 -149 99 c-170 112 -145 96 -328 206 -255
154 -582 321 -855 437 -80 34 -154 65 -165 70 -11 5 -69 28 -130 51 -427 160
-902 292 -1310 363 -169 30 -363 58 -495 72 -30 3 -68 7 -85 9 -16 2 -70 7
-120 10 -49 4 -103 8 -120 10 -16 3 -120 7 -230 10 -110 4 -215 8 -232 9 -18
2 -34 2 -35 1z m357 -3228 c22 -3 72 -8 110 -12 39 -4 72 -8 75 -10 3 -2 34
-6 68 -10 50 -5 274 -49 415 -80 50 -11 484 -152 522 -170 17 -7 67 -30 113
-49 297 -128 594 -300 847 -491 210 -158 483 -409 632 -580 28 -33 63 -73 78
-90 49 -56 201 -260 262 -350 187 -277 341 -577 458 -890 32 -85 109 -327 120
-375 2 -8 15 -62 29 -120 13 -58 30 -132 35 -165 6 -33 13 -70 15 -81 2 -12 7
-39 10 -60 3 -22 8 -50 11 -64 2 -14 7 -52 10 -85 4 -33 8 -71 10 -85 23 -183
23 -769 0 -860 -2 -8 -6 -40 -10 -70 -6 -58 -40 -278 -49 -320 -3 -14 -13 -59
-22 -100 -51 -234 -162 -569 -265 -798 -113 -248 -331 -621 -453 -773 -12 -15
-30 -39 -41 -55 -61 -87 -238 -288 -370 -419 -269 -270 -544 -482 -862 -668
-244 -142 -506 -261 -777 -352 -157 -52 -436 -127 -526 -140 -24 -4 -47 -8
-50 -10 -3 -1 -27 -6 -55 -9 -27 -4 -57 -9 -65 -11 -8 -2 -40 -6 -70 -9 -30
-3 -64 -8 -76 -10 -11 -2 -60 -7 -110 -11 -49 -4 -105 -9 -124 -11 -51 -5
-465 -5 -530 1 -30 2 -77 7 -105 9 -27 3 -75 8 -105 11 -96 10 -346 50 -425
69 -124 29 -169 41 -286 75 -540 158 -1048 429 -1496 798 -179 148 -446 419
-592 603 -67 85 -129 163 -137 173 -8 9 -14 19 -14 21 0 3 -24 40 -54 83 -171
248 -356 603 -451 864 -9 24 -25 69 -36 99 -11 30 -22 62 -24 70 -2 8 -16 51
-30 95 -68 214 -129 512 -160 790 -26 221 -25 730 0 889 2 11 6 44 10 71 3 28
8 70 11 95 12 101 67 355 109 507 107 381 254 723 454 1053 102 169 290 430
395 549 17 19 51 58 76 86 24 27 96 102 160 166 585 587 1333 987 2145 1148
145 29 171 33 280 46 28 3 64 8 80 11 17 3 71 8 120 11 50 3 92 7 94 9 5 5
568 -3 616 -9z"/>
</g>
</svg>
